<?xml version="1.0" encoding="utf-8"?>
<svg version="1.1" xmlns:xlink="http://www.w3.org/1999/xlink" width="10px" height="10px" xmlns="http://www.w3.org/2000/svg">
  <g transform="matrix(1 0 0 1 -532 -142 )">
    <path d="M 1.16491755434788 5.07279694444446  C 1.16491755434788 2.91003833333343  2.88725638586948 1.14942530555561  5.00299850543479 1.14942527777782  C 7.1187406250001 1.14942527777782  8.84107945652181 2.91003830555553  8.84107945652181 5.07279694444446  C 8.84107945652181 7.23555558333339  7.1187406250001 8.99616858333331  5.00299850543479 8.99616858333331  C 2.88725638586948 8.99616858333331  1.16491755434788 7.23555555555561  1.16491755434788 5.07279694444446  Z M 9.80059970108698 5.07279694444446  C 9.80059970108698 2.36567049999996  7.65127437500007 0.168582388888808  5.00299850543479 0.168582388888808  C 2.35472263586962 0.168582388888808  0.205397309782597 2.36567049999996  0.205397309782597 5.07279694444446  C 0.205397309782597 7.77992338888885  2.35472263586962 9.97701149999989  5.00299850543479 9.97701149999989  C 7.65127437500007 9.97701149999989  9.80059970108698 7.77992338888885  9.80059970108698 5.07279694444446  Z " fill-rule="nonzero" fill="#cccccc" stroke="none" transform="matrix(1 0 0 1 532 142 )" />
  </g>
</svg>