<?xml version="1.0" encoding="utf-8"?>
<svg version="1.1" xmlns:xlink="http://www.w3.org/1999/xlink" width="18px" height="10px" xmlns="http://www.w3.org/2000/svg">
  <g transform="matrix(1 0 0 1 -528 -151 )">
    <path d="M 1.01172414374992 9.42528736111115  C 1.01172414374992 9.69501916666661  0.788275856250038 9.91570880555548  0.515172403125007 9.91570880555548  C 0.242068949999975 9.91570880555548  0.0186206906249708 9.69501913888882  0.0186206906249708 9.42528736111115  C 0.0186206906249708 4.28567049999992  4.24924138124993 0.107279694444514  9.45310345312498 0.107279694444514  C 12.914068978125 0.107279694444514  16.092 1.97578544444445  17.7504827624999 4.98206897222212  C 17.8795862156251 5.22237547222221  17.79020690625 5.51662836111109  17.551862071875 5.64904213888883  C 17.308551740625 5.77655172222217  17.0106206906249 5.68827586111104  16.8765517125 5.45287355555558  C 15.3968275687499 2.76045975000011  12.5515861875001 1.0881226111112  9.45310345312498 1.0881226111112  C 4.800413784375 1.0881226111112  1.01172414374992 4.83003833333339  1.01172414374992 9.42528736111115  Z " fill-rule="nonzero" fill="#cccccc" stroke="none" transform="matrix(1 0 0 1 528 151 )" />
  </g>
</svg>