<?xml version="1.0" encoding="utf-8"?>
<svg version="1.1" xmlns:xlink="http://www.w3.org/1999/xlink" width="138px" height="28px" xmlns="http://www.w3.org/2000/svg">
  <defs>
    <mask fill="white" id="clip80">
      <path d="M 0 24  L 0 4  C 0 1.76000000000001  1.75999999999999 0  4 0  L 68.608695652174 0  L 134 0  C 136.24 0  138 1.76000000000001  138 4  L 138 24  C 138 26.24  136.24 28  134 28  L 4 28  C 1.75999999999999 28  0 26.24  0 24  Z " fill-rule="evenodd" />
    </mask>
  </defs>
  <g transform="matrix(1 0 0 1 -1214 -79 )">
    <path d="M 0 24  L 0 4  C 0 1.76000000000001  1.75999999999999 0  4 0  L 68.608695652174 0  L 134 0  C 136.24 0  138 1.76000000000001  138 4  L 138 24  C 138 26.24  136.24 28  134 28  L 4 28  C 1.75999999999999 28  0 26.24  0 24  Z " fill-rule="nonzero" fill="#ffffff" stroke="none" transform="matrix(1 0 0 1 1214 79 )" />
    <path d="M 0 24  L 0 4  C 0 1.76000000000001  1.75999999999999 0  4 0  L 68.608695652174 0  L 134 0  C 136.24 0  138 1.76000000000001  138 4  L 138 24  C 138 26.24  136.24 28  134 28  L 4 28  C 1.75999999999999 28  0 26.24  0 24  Z " stroke-width="2" stroke="#d9d9d9" fill="none" transform="matrix(1 0 0 1 1214 79 )" mask="url(#clip80)" />
  </g>
</svg>