<?xml version="1.0" encoding="utf-8"?>
<svg version="1.1" xmlns:xlink="http://www.w3.org/1999/xlink" width="505px" height="143px" xmlns="http://www.w3.org/2000/svg">
  <g transform="matrix(1 0 0 1 -372 -248 )">
    <path d="M 0 134.775835346624  C 0 134.775835346624  18.9073856453638 134.775835346624  25.4539061106005 130.682546131169  C 32.0004265758372 126.589256915715  44.964392849642 95.5595263077033  47.4322544154242 92.7987733387153  C 55.2278343606845 84.0779962994891  57.9623420578078 95.0141932184921  74.8974903896814 89.3706531957737  C 82.2097864030251 86.9338729325861  85.9907807999287 4.51429496452255  94.0838624867624 4.51429496452255  C 102.176944173596 4.51429496452255  110.731242912542 116.997450276965  123.579591386563 116.997450276965  C 136.427939860584 116.997450276965  140.482622008213 86.9338729325861  155.548473277085 86.9338729325861  C 170.614324545957 86.9338729325861  171.651401317716 0  184.322778336488 0  C 196.99415535526 0  201.704042176411 0  209.013684376955 0  C 216.323326577499 0  219.890728700939 79.8198158635507  229.20444655862 79.8198158635507  C 238.518164416302 79.8198158635507  243.132220596867 63.1556371848744  250.012436466959 63.1556371848744  C 256.892652337052 63.1556371848744  257.306010666512 92.7987733387154  276.727206094086 92.7987733387154  C 296.148401521661 92.7987733387154  302.856294978934 121.89279035928  310.29902338073 112.566257107816  C 317.741751782526 103.239723856351  341.584509514771 73.7681797001017  355.104692898265 71.1302581527293  C 368.624876281758 68.4923366053565  368.094818748725 85.7716810516755  378.980786830494 86.6827748275964  C 389.866754912264 87.5938686035172  393.200970642984 112.566257107816  408.80917728581 112.566257107816  C 424.417383928636 112.566257107816  424.721669541209 76.6347376059982  434.351340315844 76.6347376059982  C 443.981011090478 76.6347376059982  447.132380104236 142  463.514817276228 142  C 471.604421090605 142  470.510001133556 136.841636236929  481.400118871069 136.841636236929  C 492.290236608582 136.841636236929  496.264292686408 142  504 142  " stroke-width="1" stroke="#8167f5" fill="none" transform="matrix(1 0 0 1 372 248 )" />
  </g>
</svg>