<?xml version="1.0" encoding="utf-8"?>
<svg version="1.1" xmlns:xlink="http://www.w3.org/1999/xlink" width="59px" height="31px" xmlns="http://www.w3.org/2000/svg">
  <g transform="matrix(1 0 0 1 -251 -204 )">
    <path d="M 251.5 209  A 4.5 4.5 0 0 1 256 204.5 L 305 204.5  A 4.5 4.5 0 0 1 309.5 209 L 309.5 230  A 4.5 4.5 0 0 1 305 234.5 L 256 234.5  A 4.5 4.5 0 0 1 251.5 230 L 251.5 209  Z " fill-rule="nonzero" fill="#f0f7ff" stroke="none" />
    <path d="M 251.5 209  A 4.5 4.5 0 0 1 256 204.5 L 305 204.5  A 4.5 4.5 0 0 1 309.5 209 L 309.5 230  A 4.5 4.5 0 0 1 305 234.5 L 256 234.5  A 4.5 4.5 0 0 1 251.5 230 L 251.5 209  Z " stroke-width="1" stroke="#409eff" fill="none" />
  </g>
</svg>