<?xml version="1.0" encoding="utf-8"?>
<svg version="1.1" xmlns:xlink="http://www.w3.org/1999/xlink" width="14px" height="15px" xmlns="http://www.w3.org/2000/svg">
  <g transform="matrix(1 0 0 1 -634 -86 )">
    <path d="M 1.06153846153848 11.5178571428572  L 1.06153846153848 13.9285714285714  L 3.44999999999999 13.9285714285714  L 3.44999999999999 11.5178571428572  L 1.06153846153848 11.5178571428572  Z M 3.98076923076923 11.5178571428572  L 3.98076923076923 13.9285714285714  L 6.63461538461542 13.9285714285714  L 6.63461538461542 11.5178571428572  L 3.98076923076923 11.5178571428572  Z M 1.06153846153848 8.30357142857144  L 1.06153846153848 10.9821428571428  L 3.44999999999999 10.9821428571428  L 3.44999999999999 8.30357142857144  L 1.06153846153848 8.30357142857144  Z M 3.98076923076923 8.30357142857144  L 3.98076923076923 10.9821428571428  L 6.63461538461542 10.9821428571428  L 6.63461538461542 8.30357142857144  L 3.98076923076923 8.30357142857144  Z M 1.06153846153848 5.35714285714283  L 1.06153846153848 7.76785714285717  L 3.44999999999999 7.76785714285717  L 3.44999999999999 5.35714285714283  L 1.06153846153848 5.35714285714283  Z M 7.1653846153846 11.5178571428572  L 7.1653846153846 13.9285714285714  L 9.81923076923078 13.9285714285714  L 9.81923076923078 11.5178571428572  L 7.1653846153846 11.5178571428572  Z M 3.98076923076923 5.35714285714283  L 3.98076923076923 7.76785714285717  L 6.63461538461542 7.76785714285717  L 6.63461538461542 5.35714285714283  L 3.98076923076923 5.35714285714283  Z M 10.35 11.5178571428572  L 10.35 13.9285714285714  L 12.7384615384615 13.9285714285714  L 12.7384615384615 11.5178571428572  L 10.35 11.5178571428572  Z M 7.1653846153846 8.30357142857144  L 7.1653846153846 10.9821428571428  L 9.81923076923078 10.9821428571428  L 9.81923076923078 8.30357142857144  L 7.1653846153846 8.30357142857144  Z M 4.16736778846155 3.93833705357144  C 4.21989182692306 3.88532366071428  4.24615384615385 3.82254464285717  4.24615384615385 3.75  L 4.24615384615385 1.33928571428572  C 4.24615384615385 1.26674107142856  4.21989182692306 1.20396205357144  4.16736778846155 1.15094866071428  C 4.11484374999998 1.09793526785717  4.05264423076926 1.07142857142856  3.98076923076923 1.07142857142856  L 3.44999999999999 1.07142857142856  C 3.37812500000001 1.07142857142856  3.31592548076924 1.09793526785717  3.26340144230767 1.15094866071428  C 3.21087740384615 1.20396205357144  3.18461538461537 1.26674107142856  3.18461538461537 1.33928571428572  L 3.18461538461537 3.75  C 3.18461538461537 3.82254464285717  3.21087740384615 3.88532366071428  3.26340144230767 3.93833705357144  C 3.31592548076924 3.99135044642855  3.37812500000001 4.01785714285717  3.44999999999999 4.01785714285717  L 3.98076923076923 4.01785714285717  C 4.05264423076926 4.01785714285717  4.11484374999998 3.99135044642855  4.16736778846155 3.93833705357144  Z M 10.35 8.30357142857144  L 10.35 10.9821428571428  L 12.7384615384615 10.9821428571428  L 12.7384615384615 8.30357142857144  L 10.35 8.30357142857144  Z M 7.1653846153846 5.35714285714283  L 7.1653846153846 7.76785714285717  L 9.81923076923078 7.76785714285717  L 9.81923076923078 5.35714285714283  L 7.1653846153846 5.35714285714283  Z M 10.35 5.35714285714283  L 10.35 7.76785714285717  L 12.7384615384615 7.76785714285717  L 12.7384615384615 5.35714285714283  L 10.35 5.35714285714283  Z M 10.5365985576923 3.93833705357144  C 10.5891225961539 3.88532366071428  10.6153846153846 3.82254464285717  10.6153846153846 3.75  L 10.6153846153846 1.33928571428572  C 10.6153846153846 1.26674107142856  10.5891225961539 1.20396205357144  10.5365985576923 1.15094866071428  C 10.4840745192308 1.09793526785717  10.421875 1.07142857142856  10.35 1.07142857142856  L 9.81923076923078 1.07142857142856  C 9.74735576923081 1.07142857142856  9.68515625000003 1.09793526785717  9.63263221153846 1.15094866071428  C 9.58010817307695 1.20396205357144  9.55384615384617 1.26674107142856  9.55384615384617 1.33928571428572  L 9.55384615384617 3.75  C 9.55384615384617 3.82254464285717  9.58010817307695 3.88532366071428  9.63263221153846 3.93833705357144  C 9.68515625000003 3.99135044642855  9.74735576923081 4.01785714285717  9.81923076923078 4.01785714285717  L 10.35 4.01785714285717  C 10.421875 4.01785714285717  10.4840745192308 3.99135044642855  10.5365985576923 3.93833705357144  Z M 13.4848557692308 2.4609375  C 13.6949519230769 2.67299107142856  13.8 2.92410714285717  13.8 3.21428571428572  L 13.8 13.9285714285714  C 13.8 14.21875  13.6949519230769 14.4698660714286  13.4848557692308 14.6819196428572  C 13.2747596153847 14.8939732142857  13.0259615384616 15  12.7384615384615 15  L 1.06153846153848 15  C 0.774038461538453 15  0.525240384615358 14.8939732142857  0.315144230769249 14.6819196428572  C 0.105048076923083 14.4698660714286  0 14.21875  0 13.9285714285714  L 0 3.21428571428572  C 0 2.92410714285717  0.105048076923083 2.67299107142856  0.315144230769249 2.4609375  C 0.525240384615358 2.24888392857144  0.774038461538453 2.14285714285717  1.06153846153848 2.14285714285717  L 2.12307692307695 2.14285714285717  L 2.12307692307695 1.33928571428572  C 2.12307692307695 0.970982142857167  2.25300480769232 0.655691964285722  2.51286057692306 0.393415178571445  C 2.77271634615386 0.131138392857167  3.08509615384617 0  3.44999999999999 0  L 3.98076923076923 0  C 4.34567307692311 0  4.65805288461542 0.131138392857167  4.91790865384615 0.393415178571445  C 5.17776442307695 0.655691964285722  5.30769230769232 0.970982142857167  5.30769230769232 1.33928571428572  L 5.30769230769232 2.14285714285717  L 8.49230769230769 2.14285714285717  L 8.49230769230769 1.33928571428572  C 8.49230769230769 0.970982142857167  8.62223557692306 0.655691964285722  8.88209134615386 0.393415178571445  C 9.1419471153846 0.131138392857167  9.45432692307691 0  9.81923076923078 0  L 10.35 0  C 10.7149038461538 0  11.0272836538462 0.131138392857167  11.287139423077 0.393415178571445  C 11.5469951923077 0.655691964285722  11.6769230769231 0.970982142857167  11.6769230769231 1.33928571428572  L 11.6769230769231 2.14285714285717  L 12.7384615384615 2.14285714285717  C 13.0259615384616 2.14285714285717  13.2747596153847 2.24888392857144  13.4848557692308 2.4609375  Z " fill-rule="nonzero" fill="#cccccc" stroke="none" transform="matrix(1 0 0 1 634 86 )" />
  </g>
</svg>