<?xml version="1.0" encoding="utf-8"?>
<svg version="1.1" xmlns:xlink="http://www.w3.org/1999/xlink" width="18px" height="18px" xmlns="http://www.w3.org/2000/svg">
  <g transform="matrix(1 0 0 1 -204 -9 )">
    <path d="M 17.5757575757575 13.4545454545454  C 17.8585858585859 13.7373737373737  18 14.0808080808081  18 14.4848484848485  C 18 14.8888888888889  17.8585858585859 15.2323232323232  17.5757575757575 15.5151515151515  L 15.5151515151515 17.5757575757576  C 15.2323232323233 17.8585858585859  14.8888888888889 18  14.4848484848485 18  C 14.0808080808081 18  13.7373737373737 17.8585858585859  13.4545454545455 17.5757575757576  L 9 13.1212121212121  L 4.5454545454545 17.5757575757576  C 4.26262626262633 17.8585858585859  3.91919191919192 18  3.5151515151515 18  C 3.11111111111109 18  2.76767676767668 17.8585858585859  2.4848484848485 17.5757575757576  L 0.424242424242493 15.5151515151515  C 0.141414141414089 15.2323232323232  0 14.8888888888889  0 14.4848484848485  C 0 14.0808080808081  0.141414141414089 13.7373737373737  0.424242424242493 13.4545454545454  L 4.87878787878799 9  L 0.424242424242493 4.54545454545456  C 0.141414141414089 4.26262626262627  0 3.91919191919192  0 3.5151515151515  C 0 3.11111111111109  0.141414141414089 2.76767676767679  0.424242424242493 2.4848484848485  L 2.4848484848485 0.424242424242436  C 2.76767676767668 0.141414141414145  3.11111111111109 0  3.5151515151515 0  C 3.91919191919192 0  4.26262626262633 0.141414141414145  4.5454545454545 0.424242424242436  L 9 4.87878787878788  L 13.4545454545455 0.424242424242436  C 13.7373737373737 0.141414141414145  14.0808080808081 0  14.4848484848485 0  C 14.8888888888889 0  15.2323232323233 0.141414141414145  15.5151515151515 0.424242424242436  L 17.5757575757575 2.4848484848485  C 17.8585858585859 2.76767676767679  18 3.11111111111109  18 3.5151515151515  C 18 3.91919191919192  17.8585858585859 4.26262626262627  17.5757575757575 4.54545454545456  L 13.121212121212 9  L 17.5757575757575 13.4545454545454  Z " fill-rule="nonzero" fill="#ffffff" stroke="none" transform="matrix(1 0 0 1 204 9 )" />
  </g>
</svg>